<?xml version="1.0" encoding="utf-8"?>
<!-- Generator: Adobe Illustrator 25.2.0, SVG Export Plug-In . SVG Version: 6.00 Build 0)  -->
<svg version="1.1" id="Layer_1" xmlns="http://www.w3.org/2000/svg" xmlns:xlink="http://www.w3.org/1999/xlink" x="0px" y="0px"
	 viewBox="0 0 70 70" style="enable-background:new 0 0 70 70;" xml:space="preserve">
<style type="text/css">
	.st0{fill:#062E40;}
	.st1{fill:none;stroke:#F6921E;stroke-width:0.8921;stroke-miterlimit:10;}
	.st2{clip-path:url(#SVGID_20_);}
	.st3{clip-path:url(#SVGID_24_);}
	.st4{clip-path:url(#SVGID_26_);}
	.st5{fill:none;stroke:#F6921E;stroke-width:9.7305;stroke-miterlimit:10;}
	.st6{clip-path:url(#SVGID_56_);}
	.st7{clip-path:url(#SVGID_60_);}
	.st8{clip-path:url(#SVGID_62_);}
	.st9{fill:none;stroke:#F6921E;stroke-width:0.7229;stroke-miterlimit:10;}
	.st10{clip-path:url(#SVGID_92_);}
	.st11{clip-path:url(#SVGID_96_);}
	.st12{clip-path:url(#SVGID_98_);}
	.st13{clip-path:url(#SVGID_112_);}
	.st14{fill:url(#SVGID_113_);}
	.st15{clip-path:url(#SVGID_115_);}
	.st16{fill:url(#SVGID_116_);}
	.st17{fill:url(#SVGID_117_);}
	.st18{fill:url(#SVGID_118_);}
	.st19{fill:url(#SVGID_119_);}
	.st20{fill:url(#SVGID_120_);}
	.st21{fill:url(#SVGID_121_);}
	.st22{fill:url(#SVGID_122_);}
	.st23{fill:url(#SVGID_123_);}
	.st24{fill:url(#SVGID_124_);}
	.st25{fill:url(#SVGID_125_);}
	.st26{fill:url(#SVGID_126_);}
	.st27{fill:url(#SVGID_127_);}
	.st28{fill:url(#SVGID_128_);}
	.st29{fill:url(#SVGID_129_);}
	.st30{fill:url(#SVGID_130_);}
	.st31{fill:url(#SVGID_131_);}
	.st32{fill:url(#SVGID_132_);}
	.st33{fill:url(#SVGID_133_);}
	.st34{fill:url(#SVGID_134_);}
	.st35{fill:url(#SVGID_135_);}
	.st36{fill:url(#SVGID_136_);}
	.st37{fill:url(#SVGID_137_);}
	.st38{fill:url(#SVGID_138_);}
	.st39{fill:url(#SVGID_139_);}
	.st40{fill:url(#SVGID_140_);}
	.st41{fill:url(#SVGID_141_);}
	.st42{fill:url(#SVGID_142_);}
	.st43{fill:url(#SVGID_143_);}
	.st44{fill:url(#SVGID_144_);}
	.st45{fill:url(#SVGID_145_);}
	.st46{clip-path:url(#SVGID_115_);fill:url(#SVGID_146_);}
	.st47{fill:url(#SVGID_147_);}
	.st48{fill:url(#SVGID_148_);}
	.st49{fill:url(#SVGID_149_);}
	.st50{fill:url(#SVGID_150_);}
	.st51{clip-path:url(#SVGID_152_);}
	.st52{clip-path:url(#SVGID_154_);fill:url(#SVGID_155_);}
	.st53{clip-path:url(#SVGID_154_);fill:url(#SVGID_156_);}
	.st54{clip-path:url(#SVGID_154_);fill:url(#SVGID_157_);}
	.st55{clip-path:url(#SVGID_154_);fill:url(#SVGID_158_);}
	.st56{clip-path:url(#SVGID_154_);fill:url(#SVGID_159_);}
	.st57{clip-path:url(#SVGID_154_);fill:url(#SVGID_160_);}
	.st58{clip-path:url(#SVGID_154_);fill:url(#SVGID_161_);}
	.st59{clip-path:url(#SVGID_154_);fill:url(#SVGID_162_);}
	.st60{clip-path:url(#SVGID_154_);fill:url(#SVGID_163_);}
	.st61{clip-path:url(#SVGID_154_);fill:url(#SVGID_164_);}
	.st62{clip-path:url(#SVGID_154_);fill:url(#SVGID_165_);}
	.st63{clip-path:url(#SVGID_154_);fill:url(#SVGID_166_);}
	.st64{clip-path:url(#SVGID_154_);fill:url(#SVGID_167_);}
	.st65{clip-path:url(#SVGID_154_);fill:url(#SVGID_168_);}
	.st66{clip-path:url(#SVGID_154_);fill:url(#SVGID_169_);}
	.st67{clip-path:url(#SVGID_154_);fill:url(#SVGID_170_);}
	.st68{clip-path:url(#SVGID_154_);fill:url(#SVGID_171_);}
	.st69{clip-path:url(#SVGID_154_);fill:url(#SVGID_172_);}
	.st70{clip-path:url(#SVGID_154_);fill:url(#SVGID_173_);}
	.st71{clip-path:url(#SVGID_154_);fill:url(#SVGID_174_);}
	.st72{clip-path:url(#SVGID_154_);fill:url(#SVGID_175_);}
	.st73{clip-path:url(#SVGID_154_);fill:url(#SVGID_176_);}
	.st74{clip-path:url(#SVGID_154_);fill:url(#SVGID_177_);}
	.st75{clip-path:url(#SVGID_154_);fill:url(#SVGID_178_);}
	.st76{clip-path:url(#SVGID_154_);fill:url(#SVGID_179_);}
	.st77{clip-path:url(#SVGID_154_);fill:url(#SVGID_180_);}
	.st78{clip-path:url(#SVGID_154_);fill:url(#SVGID_181_);}
	.st79{clip-path:url(#SVGID_154_);fill:url(#SVGID_182_);}
	.st80{clip-path:url(#SVGID_154_);fill:url(#SVGID_183_);}
	.st81{clip-path:url(#SVGID_154_);fill:url(#SVGID_184_);}
	.st82{clip-path:url(#SVGID_154_);}
	.st83{fill:url(#SVGID_185_);}
	.st84{fill:url(#SVGID_186_);}
	.st85{fill:url(#SVGID_187_);}
	.st86{fill:url(#SVGID_188_);}
	.st87{fill:url(#SVGID_189_);}
	.st88{fill:url(#SVGID_190_);}
	.st89{fill:url(#SVGID_191_);}
	.st90{fill:url(#SVGID_192_);}
	.st91{fill:#5C5C5C;}
	.st92{fill:#6C6C6C;}
	.st93{fill:none;stroke:#6C6C6C;stroke-width:0.6433;stroke-miterlimit:10;}
	.st94{fill:none;stroke:#C3C2C2;stroke-width:0.6433;stroke-miterlimit:10;}
	.st95{fill:url(#SVGID_193_);}
	.st96{fill:url(#SVGID_194_);}
	.st97{fill:url(#SVGID_195_);}
	.st98{fill:url(#SVGID_196_);}
	.st99{fill:url(#SVGID_197_);}
	.st100{fill:url(#SVGID_198_);}
	.st101{fill:url(#SVGID_199_);}
	.st102{fill:url(#SVGID_200_);}
	.st103{fill:url(#SVGID_201_);}
	.st104{fill:url(#SVGID_202_);}
	.st105{fill:url(#SVGID_203_);}
	.st106{fill:url(#SVGID_204_);}
	.st107{fill:url(#SVGID_205_);}
	.st108{fill:url(#SVGID_206_);}
	.st109{fill:url(#SVGID_207_);}
	.st110{fill:url(#SVGID_208_);}
	.st111{fill:url(#SVGID_209_);}
	.st112{fill:url(#SVGID_210_);}
	.st113{fill:url(#SVGID_211_);}
	.st114{fill:url(#SVGID_212_);}
	.st115{fill:#BABABB;}
	.st116{fill:url(#SVGID_213_);}
	.st117{fill:url(#SVGID_214_);}
	.st118{fill:url(#SVGID_215_);}
	.st119{fill:url(#SVGID_216_);}
	.st120{fill:url(#SVGID_217_);}
	.st121{fill:url(#SVGID_218_);}
	.st122{fill:url(#SVGID_219_);}
	.st123{clip-path:url(#SVGID_154_);fill:url(#SVGID_220_);}
	.st124{clip-path:url(#SVGID_154_);fill:#A1A1A1;}
	.st125{clip-path:url(#SVGID_154_);fill:url(#SVGID_221_);}
	.st126{clip-path:url(#SVGID_154_);fill:url(#SVGID_222_);}
	.st127{clip-path:url(#SVGID_154_);fill:url(#SVGID_223_);}
	.st128{fill:url(#SVGID_224_);}
	.st129{fill:url(#SVGID_225_);}
	.st130{fill:#595959;}
	.st131{fill:#999999;}
	.st132{fill:#838282;}
	.st133{fill:#747575;}
	.st134{fill:#A4A3A3;}
	.st135{fill:#C5C4C4;}
	.st136{fill:#ADACAC;}
	.st137{fill:none;stroke:#000000;stroke-width:4.4332;stroke-miterlimit:10;}
	.st138{clip-path:url(#SVGID_243_);}
	.st139{clip-path:url(#SVGID_247_);}
	.st140{fill:#FFFFFF;}
	.st141{fill:none;stroke:#FFFFFF;stroke-width:25.3782;stroke-miterlimit:10;}
	.st142{clip-path:url(#SVGID_275_);}
	.st143{clip-path:url(#SVGID_279_);}
	.st144{clip-path:url(#SVGID_281_);}
	.st145{fill:#F6921E;}
	.st146{fill:none;stroke:#111C47;stroke-width:3;stroke-miterlimit:10;}
	.st147{clip-path:url(#SVGID_347_);}
	.st148{clip-path:url(#SVGID_351_);}
	.st149{clip-path:url(#SVGID_353_);}
	.st150{opacity:0.49;}
	.st151{fill:none;stroke:#1AA5D2;stroke-miterlimit:10;}
	.st152{clip-path:url(#SVGID_419_);}
	.st153{clip-path:url(#SVGID_423_);}
	.st154{clip-path:url(#SVGID_425_);}
</style>
<g>
	<g>
		<g>
			<path class="st145" d="M53.01,33c0,0.75,0,1.32,0,2.06c-1.03,0-2.04,0-3.05,0c-2.08,0-4.17-0.05-6.25,0.01
				c-2.41,0.07-3.96-0.92-4.91-3.2c-2.1-5.06-7.52-8.4-12.64-7.96c-6.06,0.52-10.7,4.3-12.13,9.88c-1.69,6.62,1.98,13.46,8.42,15.69
				c6.43,2.23,13.66-0.87,16.3-7.15c1-2.39,2.57-3.38,5.08-3.31c3.01,0.08,6.03,0.02,9.13,0.02c0,0.69,0,1.28,0,2.06
				c-0.88,0-1.76,0-2.64,0c-2.37,0-4.74,0-7.11,0c-0.9,0-1.77,0.16-2.15,1.09c-1.31,3.27-3.38,5.92-6.34,8.02
				c6.74,0,13.47,0,20.28,0c0,0.71,0,1.27,0,2.03c-0.43,0-0.86,0-1.28,0c-8.86,0-17.73,0.01-26.59,0
				c-9.1-0.01-15.81-6.95-15.54-16.05c0.2-6.82,5.98-13.22,12.75-14.09c1.13-0.14,2.27-0.23,3.41-0.23
				c8.62-0.02,17.24-0.01,25.85-0.01c0.44,0,0.88,0,1.39,0c0,0.68,0,1.23,0,1.93c-6.74,0-13.49,0-20.57,0
				c0.44,0.39,0.62,0.58,0.83,0.72c2.5,1.69,4.37,3.92,5.48,6.73c0.52,1.3,1.37,1.79,2.72,1.77C46.61,32.98,49.75,33,53.01,33z"/>
		</g>
		<g>
			<path class="st145" d="M26.76,48.16c-6.17-0.01-11.14-4.96-11.13-11.1c0-6.15,4.97-11.09,11.14-11.09
				c6.18,0,11.1,4.92,11.09,11.1C37.86,43.24,32.93,48.16,26.76,48.16z M31.65,39.95c0.9,0.48,1.89,1.01,2.88,1.54
				c1.76-2,1.79-6.92-0.03-8.85c-0.95,0.52-1.91,1.04-2.85,1.56C31.65,36.07,31.65,37.93,31.65,39.95z M18.86,41.53
				c0.95-0.48,1.82-0.9,2.66-1.38c0.19-0.11,0.36-0.44,0.37-0.67c0.03-1.77,0.02-3.54,0.02-5.3c-1.02-0.53-2.01-1.06-3.06-1.61
				C17.3,35.62,17.28,38.54,18.86,41.53z M23.9,34.95c0,1.43,0,2.86,0,4.22c1.94,0,3.71,0,5.68,0c0-1.39,0-2.81,0-4.22
				C27.69,34.95,25.88,34.95,23.9,34.95z M29.23,32.83c-0.69-1.7-1.28-3.17-1.88-4.64c-0.12,0-0.23-0.01-0.35-0.01
				c-0.8,1.5-1.6,3-2.48,4.66C26.22,32.83,27.58,32.83,29.23,32.83z M28.99,41.31c-1.68,0-3.06,0-4.72,0c0.7,1.71,1.3,3.17,1.9,4.62
				c0.12-0.01,0.24-0.01,0.36-0.02C27.33,44.44,28.12,42.96,28.99,41.31z M22.57,32.26c0.68-1.39,1.29-2.62,1.89-3.85
				c-0.08-0.09-0.16-0.18-0.25-0.28c-1.36,0.83-2.73,1.65-4.35,2.63C20.99,31.38,21.72,31.79,22.57,32.26z M29.09,45.62
				c0.07,0.12,0.14,0.24,0.2,0.35c1.37-0.82,2.75-1.63,4.4-2.61c-1.16-0.62-1.95-1.05-2.74-1.48
				C30.27,43.24,29.68,44.43,29.09,45.62z M30.03,28.44c-0.07,0.08-0.13,0.16-0.2,0.23c0.41,1.13,0.82,2.25,1.27,3.49
				c0.78-0.43,1.51-0.83,2.51-1.38C32.28,29.91,31.16,29.18,30.03,28.44z M19.91,43.34c1.34,0.86,2.44,1.58,3.55,2.29
				c0.07-0.09,0.14-0.18,0.21-0.27c-0.42-1.11-0.83-2.22-1.28-3.42C21.56,42.41,20.87,42.8,19.91,43.34z"/>
		</g>
		<g>
			<path class="st145" d="M29.89,16.79c-1.92,0-3.71,0.03-5.5-0.01c-0.73-0.02-0.99,0.37-0.97,0.95c0.08,1.92-0.77,2.99-2.7,3.27
				c-0.54,0.08-1.12,0.33-1.56,0.67c-1.17,0.9-2.18,0.77-3.19-0.25c-0.34-0.34-0.79-0.56-1.11-0.78c-1.51,1.52-2.96,2.99-4.49,4.52
				c-0.02-0.08-0.03,0.03,0.02,0.07c1.87,1.72,1.4,3.43,0.5,5.57c-0.78,1.86-1.56,3.03-3.66,2.97c-0.22-0.01-0.45,0.13-0.75,0.22
				c0,1.67,0,3.29,0,4.92c0,0.4,0,0.81,0,1.19c0.19,0.09,0.3,0.18,0.4,0.18c2.45-0.06,3.32,1.4,4.19,3.52
				c0.79,1.93,1.06,3.33-0.51,4.8c-0.14,0.13-0.18,0.35-0.23,0.45c1.48,1.5,2.92,2.94,4.47,4.5c0.57-0.4,1.26-0.82,1.87-1.33
				c0.57-0.48,1.05-0.52,1.74-0.16c1.15,0.59,2.37,1.07,3.6,1.49c0.74,0.25,1.07,0.57,1.18,1.42c0.3,2.38,0.36,2.38,2.79,2.38
				c1.3,0,2.6,0,3.92,0c0.19-0.99,0.36-1.86,0.55-2.81c0.66,0.11,1.25,0.2,1.95,0.31c-0.25,1.5-0.48,2.93-0.73,4.44
				c-3.23,0-6.44,0-9.79,0c-0.15-0.86-0.36-1.77-0.46-2.68c-0.09-0.77-0.46-1.1-1.14-1.51c-1.98-1.19-3.61-0.86-5.14,0.71
				c-0.16,0.17-0.39,0.27-0.49,0.34c-2.33-2.33-4.6-4.6-6.94-6.93c0.5-1.48,2.47-2.37,1.44-4.88c-1.04-2.51-3.02-1.67-4.59-2.47
				c0-3.15,0-6.37,0-9.59c1.5-0.83,3.57,0.06,4.6-2.49c1.01-2.49-0.88-3.33-1.42-4.77c2.31-2.31,4.58-4.57,6.98-6.97
				c0.62,0.44,1.45,1.09,2.35,1.61c0.34,0.2,0.88,0.23,1.28,0.14c2.23-0.49,3.52-1.77,3.36-4.21c-0.02-0.23,0.13-0.46,0.22-0.75
				c3.21,0,6.42,0,9.71,0c0.25,1.45,0.5,2.88,0.76,4.42c-0.63,0.12-1.21,0.24-1.92,0.38C30.3,18.7,30.1,17.8,29.89,16.79z"/>
		</g>
		<g>
			<path class="st145" d="M63.12,26.04c0,0.69,0,1.25,0,1.87c-6.71,0-13.34,0-20.06,0c0-0.6,0-1.19,0-1.87
				C49.72,26.04,56.38,26.04,63.12,26.04z"/>
		</g>
		<g>
			<path class="st145" d="M63.11,46.23c0,0.62,0,1.2,0,1.86c-6.69,0-13.33,0-20.05,0c0-0.59,0-1.18,0-1.86
				C49.7,46.23,56.36,46.23,63.11,46.23z"/>
		</g>
		<g>
			<path class="st145" d="M55.17,33.09c0.7,0,1.29,0,1.93,0c0,0.64,0,1.19,0,1.86c-0.62,0-1.23,0-1.93,0
				C55.17,34.36,55.17,33.78,55.17,33.09z"/>
		</g>
		<g>
			<path class="st145" d="M55.19,39.1c0.74,0,1.25,0,1.87,0c0,0.63,0,1.21,0,1.9c-0.58,0-1.19,0-1.87,0
				C55.19,40.36,55.19,39.74,55.19,39.1z"/>
		</g>
		<g>
			<path class="st145" d="M13.32,24.68c0.34-0.32,0.75-0.7,1.21-1.14c0.43,0.5,0.83,0.97,1.32,1.54c-0.31,0.26-0.77,0.63-1.31,1.07
				C14.23,25.77,13.83,25.3,13.32,24.68z"/>
		</g>
		<g>
			<path class="st145" d="M14.63,50.63c-0.48-0.53-0.88-0.97-1.38-1.51c0.42-0.41,0.87-0.85,1.37-1.33c0.51,0.51,0.93,0.94,1.4,1.4
				C15.53,49.69,15.09,50.14,14.63,50.63z"/>
		</g>
		<g>
			<path class="st145" d="M27.69,20.82c-0.6,0-1.15,0-1.81,0c0-0.59,0-1.17,0-1.85c0.55,0,1.13,0,1.81,0
				C27.69,19.51,27.69,20.1,27.69,20.82z"/>
		</g>
		<g>
			<path class="st145" d="M59.1,21.97c0,0.66,0,1.21,0,1.83c-0.64,0-1.22,0-1.87,0c0-0.64,0-1.22,0-1.83
				C57.9,21.97,58.51,21.97,59.1,21.97z"/>
		</g>
		<g>
			<path class="st145" d="M65.36,26.02c0.61,0,1.19,0,1.83,0c0,0.66,0,1.25,0,1.89c-0.61,0-1.16,0-1.83,0
				C65.36,27.31,65.36,26.7,65.36,26.02z"/>
		</g>
		<g>
			<path class="st145" d="M10.53,36.16c0,0.59,0,1.14,0,1.79c-0.61,0-1.23,0-1.92,0c0-0.59,0-1.14,0-1.79
				C9.24,36.16,9.85,36.16,10.53,36.16z"/>
		</g>
		<g>
			<path class="st145" d="M65.37,46.17c0.64,0,1.16,0,1.78,0c0,0.64,0,1.25,0,1.94c-0.58,0-1.13,0-1.78,0
				C65.37,47.46,65.37,46.82,65.37,46.17z"/>
		</g>
		<g>
			<path class="st145" d="M59.06,52.19c-0.58,0-1.13,0-1.79,0c0-0.57,0-1.15,0-1.84c0.53,0,1.11,0,1.79,0
				C59.06,50.88,59.06,51.46,59.06,52.19z"/>
		</g>
		<g>
			<path class="st145" d="M27.73,53.32c0,0.65,0,1.21,0,1.85c-0.63,0-1.21,0-1.87,0c0-0.6,0-1.19,0-1.85
				C26.46,53.32,27.04,53.32,27.73,53.32z"/>
		</g>
	</g>
</g>
</svg>
