<svg id="Layer_1" data-name="Layer 1" xmlns="http://www.w3.org/2000/svg" viewBox="0 0 70 70"><defs><style>.cls-1{fill:#f5911e;}</style></defs><path class="cls-1" d="M18.91,49.61c-3.06,0-5.9,0-8.75,0a5.07,5.07,0,0,1-5.28-5.05c-.09-6.11-.08-12.23,0-18.34a5,5,0,0,1,4.27-5,5,5,0,0,1,5.68,3.48,7,7,0,0,1,.23,2c0,3.68,0,7.35,0,11V39.4h8.25c3.92,0,5.81,1.89,5.81,5.83,0,5.88,0,11.76,0,17.65a4.94,4.94,0,0,1-4.37,4.89,5.07,5.07,0,0,1-5.38-3.19A7.64,7.64,0,0,1,18.93,62C18.89,57.94,18.91,53.86,18.91,49.61Zm8.28,4c0-3,0-6,0-9a3,3,0,0,0-3.37-3.31c-2.8,0-5.6,0-8.41,0-2.17,0-2.28-.12-2.28-2.23,0-4.18,0-8.37,0-12.55a4.53,4.53,0,0,0-.68-2.29,3,3,0,0,0-3.45-1A3.24,3.24,0,0,0,6.8,26.57q0,8.74,0,17.5a3.27,3.27,0,0,0,3.6,3.6c2.89,0,5.79,0,8.68,0,1.71,0,1.78.07,1.78,1.81,0,4.32,0,8.64,0,12.95a3.26,3.26,0,0,0,3.19,3.44,3.16,3.16,0,0,0,3.13-3.45C27.21,59.49,27.2,56.55,27.19,53.61Z"/><path class="cls-1" d="M51.38,49.61c0,4.33,0,8.5,0,12.68a5.18,5.18,0,0,1-4.16,5.41c-2.8.64-5.93-1.52-6-4.4-.11-6.48-.09-13,0-19.44A4.75,4.75,0,0,1,46,39.42c3-.05,6,0,9.14,0,0-.61.07-1.13.07-1.66,0-3.91,0-7.82,0-11.72a5,5,0,0,1,9.27-2.54,6.68,6.68,0,0,1,.88,3.11c.09,5.84.07,11.68,0,17.52a5.19,5.19,0,0,1-5.56,5.49ZM43.1,53.48q0,4.55,0,9.09a3.05,3.05,0,0,0,1.82,3c2.22,1,4.51-.58,4.53-3.26q0-6.55,0-13.1c0-1.12.38-1.56,1.52-1.54,2.94.06,5.88,0,8.83,0,2.47,0,3.71-1.25,3.72-3.75q0-8.62,0-17.23c0-2.21-1.23-3.56-3.14-3.58s-3.19,1.27-3.2,3.6c0,4.18,0,8.37,0,12.55,0,1.89-.18,2.07-2,2.07-2.85,0-5.7,0-8.54,0-2.33,0-3.48,1.13-3.5,3.45C43.08,47.69,43.09,50.58,43.1,53.48Z"/><path class="cls-1" d="M26.87,19.48c-2,0-3.74.05-5.52,0a2.1,2.1,0,0,1-1.46-.7c-.16-.22.21-1.08.56-1.35,2.3-1.73,2.84-4,2.58-6.76-.21-2.18,0-4.4,0-6.6,0-1.69.15-1.84,1.78-1.84,5.65,0,11.3,0,16.94,0,1.35,0,1.85.51,1.72,1.8,0,.54,0,1.09,0,1.86,1.8,0,3.52-.06,5.24,0a6.76,6.76,0,0,1,1.81.64c-.26.54-.38,1.28-.8,1.6-2.09,1.58-2.6,3.63-2.41,6.14s0,4.86.06,7.3c0,1.21-.49,1.61-1.64,1.6-5.56,0-11.11,0-16.67,0-2.1,0-2.13,0-2.14-2.18ZM41.44,4.23H24.92c0,2.76-.06,5.42,0,8.07.06,1.88,0,3.66-1.61,4.95,0,0,0,.16.05.2H41.44ZM28.85,21.09H45.36c0-2.76.06-5.42,0-8.07-.05-1.88,0-3.66,1.63-5,0,0,0-.16,0-.2H43.42c0,3.39,0,6.7,0,10,0,1.21-.46,1.65-1.62,1.64-2.94,0-5.88,0-8.82,0H28.85Z"/><path class="cls-1" d="M35.15,34.73H21.65c-1.76,0-1.92-.16-1.92-1.86,0-1.19,0-2.38,0-3.58,0-1,.37-1.51,1.45-1.51q14,0,27.95,0c1.07,0,1.48.48,1.45,1.51,0,1.28,0,2.57,0,3.86s-.5,1.61-1.67,1.6C44.33,34.71,39.74,34.73,35.15,34.73Zm13.45-4.9H21.73v2.85H48.6Z"/><path class="cls-1" d="M60.27,20.16a7.52,7.52,0,0,1-7.58-7.59A7.57,7.57,0,0,1,60.41,5a7.61,7.61,0,1,1-.14,15.21Zm0-1.93A5.69,5.69,0,0,0,66,12.58a5.78,5.78,0,0,0-5.71-5.71,5.68,5.68,0,0,0,0,11.36Z"/><path class="cls-1" d="M17.59,12.78a7.65,7.65,0,0,1-7.7,7.53,7.74,7.74,0,0,1-7.55-7.85A7.76,7.76,0,0,1,10.14,5,7.66,7.66,0,0,1,17.59,12.78Zm-1.93-.09A5.73,5.73,0,0,0,10,6.92a5.82,5.82,0,0,0-5.75,5.69A5.83,5.83,0,0,0,10,18.38,5.73,5.73,0,0,0,15.66,12.69Z"/><path class="cls-1" d="M33.21,14c-1.47,0-2.94.07-4.4,0-.42,0-.79-.63-1.18-1,.38-.3.76-.86,1.15-.87,2.94-.07,5.88-.08,8.82,0,.39,0,.78.63,1.16,1-.38.3-.74.83-1.14.86C36.16,14.1,34.68,14,33.21,14Z"/><path class="cls-1" d="M33.25,7.64c1.42,0,2.85-.07,4.26,0,.44,0,.84.57,1.25.88-.4.34-.79,1-1.21,1q-4.32.12-8.66,0a1.58,1.58,0,0,1-1.2-.94c-.15-.88.62-1,1.3-.94h4.26Z"/></svg>