<?xml version="1.0" encoding="utf-8"?>
<!-- Generator: Adobe Illustrator 25.2.0, SVG Export Plug-In . SVG Version: 6.00 Build 0)  -->
<svg version="1.1" id="Layer_1" xmlns="http://www.w3.org/2000/svg" xmlns:xlink="http://www.w3.org/1999/xlink" x="70px" y="70px"
	 viewBox="0 0 70 70" style="enable-background:new 0 0 70 70;" xml:space="preserve">
<style type="text/css">
	.st0{fill:#062E40;}
	.st1{fill:none;stroke:#F6921E;stroke-width:0.8921;stroke-miterlimit:10;}
	.st2{clip-path:url(#SVGID_20_);}
	.st3{clip-path:url(#SVGID_24_);}
	.st4{clip-path:url(#SVGID_26_);}
	.st5{fill:none;stroke:#F6921E;stroke-width:9.7305;stroke-miterlimit:10;}
	.st6{clip-path:url(#SVGID_56_);}
	.st7{clip-path:url(#SVGID_60_);}
	.st8{clip-path:url(#SVGID_62_);}
	.st9{fill:none;stroke:#F6921E;stroke-width:0.7229;stroke-miterlimit:10;}
	.st10{clip-path:url(#SVGID_92_);}
	.st11{clip-path:url(#SVGID_96_);}
	.st12{clip-path:url(#SVGID_98_);}
	.st13{clip-path:url(#SVGID_112_);}
	.st14{fill:url(#SVGID_113_);}
	.st15{clip-path:url(#SVGID_115_);}
	.st16{fill:url(#SVGID_116_);}
	.st17{fill:url(#SVGID_117_);}
	.st18{fill:url(#SVGID_118_);}
	.st19{fill:url(#SVGID_119_);}
	.st20{fill:url(#SVGID_120_);}
	.st21{fill:url(#SVGID_121_);}
	.st22{fill:url(#SVGID_122_);}
	.st23{fill:url(#SVGID_123_);}
	.st24{fill:url(#SVGID_124_);}
	.st25{fill:url(#SVGID_125_);}
	.st26{fill:url(#SVGID_126_);}
	.st27{fill:url(#SVGID_127_);}
	.st28{fill:url(#SVGID_128_);}
	.st29{fill:url(#SVGID_129_);}
	.st30{fill:url(#SVGID_130_);}
	.st31{fill:url(#SVGID_131_);}
	.st32{fill:url(#SVGID_132_);}
	.st33{fill:url(#SVGID_133_);}
	.st34{fill:url(#SVGID_134_);}
	.st35{fill:url(#SVGID_135_);}
	.st36{fill:url(#SVGID_136_);}
	.st37{fill:url(#SVGID_137_);}
	.st38{fill:url(#SVGID_138_);}
	.st39{fill:url(#SVGID_139_);}
	.st40{fill:url(#SVGID_140_);}
	.st41{fill:url(#SVGID_141_);}
	.st42{fill:url(#SVGID_142_);}
	.st43{fill:url(#SVGID_143_);}
	.st44{fill:url(#SVGID_144_);}
	.st45{fill:url(#SVGID_145_);}
	.st46{clip-path:url(#SVGID_115_);fill:url(#SVGID_146_);}
	.st47{fill:url(#SVGID_147_);}
	.st48{fill:url(#SVGID_148_);}
	.st49{fill:url(#SVGID_149_);}
	.st50{fill:url(#SVGID_150_);}
	.st51{clip-path:url(#SVGID_152_);}
	.st52{clip-path:url(#SVGID_154_);fill:url(#SVGID_155_);}
	.st53{clip-path:url(#SVGID_154_);fill:url(#SVGID_156_);}
	.st54{clip-path:url(#SVGID_154_);fill:url(#SVGID_157_);}
	.st55{clip-path:url(#SVGID_154_);fill:url(#SVGID_158_);}
	.st56{clip-path:url(#SVGID_154_);fill:url(#SVGID_159_);}
	.st57{clip-path:url(#SVGID_154_);fill:url(#SVGID_160_);}
	.st58{clip-path:url(#SVGID_154_);fill:url(#SVGID_161_);}
	.st59{clip-path:url(#SVGID_154_);fill:url(#SVGID_162_);}
	.st60{clip-path:url(#SVGID_154_);fill:url(#SVGID_163_);}
	.st61{clip-path:url(#SVGID_154_);fill:url(#SVGID_164_);}
	.st62{clip-path:url(#SVGID_154_);fill:url(#SVGID_165_);}
	.st63{clip-path:url(#SVGID_154_);fill:url(#SVGID_166_);}
	.st64{clip-path:url(#SVGID_154_);fill:url(#SVGID_167_);}
	.st65{clip-path:url(#SVGID_154_);fill:url(#SVGID_168_);}
	.st66{clip-path:url(#SVGID_154_);fill:url(#SVGID_169_);}
	.st67{clip-path:url(#SVGID_154_);fill:url(#SVGID_170_);}
	.st68{clip-path:url(#SVGID_154_);fill:url(#SVGID_171_);}
	.st69{clip-path:url(#SVGID_154_);fill:url(#SVGID_172_);}
	.st70{clip-path:url(#SVGID_154_);fill:url(#SVGID_173_);}
	.st71{clip-path:url(#SVGID_154_);fill:url(#SVGID_174_);}
	.st72{clip-path:url(#SVGID_154_);fill:url(#SVGID_175_);}
	.st73{clip-path:url(#SVGID_154_);fill:url(#SVGID_176_);}
	.st74{clip-path:url(#SVGID_154_);fill:url(#SVGID_177_);}
	.st75{clip-path:url(#SVGID_154_);fill:url(#SVGID_178_);}
	.st76{clip-path:url(#SVGID_154_);fill:url(#SVGID_179_);}
	.st77{clip-path:url(#SVGID_154_);fill:url(#SVGID_180_);}
	.st78{clip-path:url(#SVGID_154_);fill:url(#SVGID_181_);}
	.st79{clip-path:url(#SVGID_154_);fill:url(#SVGID_182_);}
	.st80{clip-path:url(#SVGID_154_);fill:url(#SVGID_183_);}
	.st81{clip-path:url(#SVGID_154_);fill:url(#SVGID_184_);}
	.st82{clip-path:url(#SVGID_154_);}
	.st83{fill:url(#SVGID_185_);}
	.st84{fill:url(#SVGID_186_);}
	.st85{fill:url(#SVGID_187_);}
	.st86{fill:url(#SVGID_188_);}
	.st87{fill:url(#SVGID_189_);}
	.st88{fill:url(#SVGID_190_);}
	.st89{fill:url(#SVGID_191_);}
	.st90{fill:url(#SVGID_192_);}
	.st91{fill:#5C5C5C;}
	.st92{fill:#6C6C6C;}
	.st93{fill:none;stroke:#6C6C6C;stroke-width:0.6433;stroke-miterlimit:10;}
	.st94{fill:none;stroke:#C3C2C2;stroke-width:0.6433;stroke-miterlimit:10;}
	.st95{fill:url(#SVGID_193_);}
	.st96{fill:url(#SVGID_194_);}
	.st97{fill:url(#SVGID_195_);}
	.st98{fill:url(#SVGID_196_);}
	.st99{fill:url(#SVGID_197_);}
	.st100{fill:url(#SVGID_198_);}
	.st101{fill:url(#SVGID_199_);}
	.st102{fill:url(#SVGID_200_);}
	.st103{fill:url(#SVGID_201_);}
	.st104{fill:url(#SVGID_202_);}
	.st105{fill:url(#SVGID_203_);}
	.st106{fill:url(#SVGID_204_);}
	.st107{fill:url(#SVGID_205_);}
	.st108{fill:url(#SVGID_206_);}
	.st109{fill:url(#SVGID_207_);}
	.st110{fill:url(#SVGID_208_);}
	.st111{fill:url(#SVGID_209_);}
	.st112{fill:url(#SVGID_210_);}
	.st113{fill:url(#SVGID_211_);}
	.st114{fill:url(#SVGID_212_);}
	.st115{fill:#BABABB;}
	.st116{fill:url(#SVGID_213_);}
	.st117{fill:url(#SVGID_214_);}
	.st118{fill:url(#SVGID_215_);}
	.st119{fill:url(#SVGID_216_);}
	.st120{fill:url(#SVGID_217_);}
	.st121{fill:url(#SVGID_218_);}
	.st122{fill:url(#SVGID_219_);}
	.st123{clip-path:url(#SVGID_154_);fill:url(#SVGID_220_);}
	.st124{clip-path:url(#SVGID_154_);fill:#A1A1A1;}
	.st125{clip-path:url(#SVGID_154_);fill:url(#SVGID_221_);}
	.st126{clip-path:url(#SVGID_154_);fill:url(#SVGID_222_);}
	.st127{clip-path:url(#SVGID_154_);fill:url(#SVGID_223_);}
	.st128{fill:url(#SVGID_224_);}
	.st129{fill:url(#SVGID_225_);}
	.st130{fill:#595959;}
	.st131{fill:#999999;}
	.st132{fill:#838282;}
	.st133{fill:#747575;}
	.st134{fill:#A4A3A3;}
	.st135{fill:#C5C4C4;}
	.st136{fill:#ADACAC;}
	.st137{fill:none;stroke:#000000;stroke-width:4.4332;stroke-miterlimit:10;}
	.st138{clip-path:url(#SVGID_243_);}
	.st139{clip-path:url(#SVGID_247_);}
	.st140{fill:#FFFFFF;}
	.st141{fill:none;stroke:#FFFFFF;stroke-width:25.3782;stroke-miterlimit:10;}
	.st142{clip-path:url(#SVGID_275_);}
	.st143{clip-path:url(#SVGID_279_);}
	.st144{clip-path:url(#SVGID_281_);}
	.st145{fill:#F6921E;}
	.st146{fill:none;stroke:#111C47;stroke-width:3;stroke-miterlimit:10;}
	.st147{clip-path:url(#SVGID_347_);}
	.st148{clip-path:url(#SVGID_351_);}
	.st149{clip-path:url(#SVGID_353_);}
	.st150{opacity:0.49;}
	.st151{fill:none;stroke:#1AA5D2;stroke-miterlimit:10;}
	.st152{clip-path:url(#SVGID_419_);}
	.st153{clip-path:url(#SVGID_423_);}
	.st154{clip-path:url(#SVGID_425_);}
</style>
<g>
	<g>
		<g>
			<path class="st145" d="M51.88,26.88c3.71,0,7.25,0,10.79,0c2.51,0,2.26-0.19,2.26,2.22c0,9.19,0,18.37,0,27.56
				c0,1.67-0.06,1.75-1.69,1.75c-18.7,0-37.4,0-56.1,0c-1.58,0-1.67-0.1-1.67-1.66c0-6.45,0-12.9,0-19.35
				c0-1.57,0.09-1.65,1.66-1.66c2.65,0,5.3,0,8.07,0c0.02-0.55,0.06-1.02,0.06-1.49c0-6.57,0-13.15,0-19.72
				c0-1.72,0.09-1.8,1.78-1.8c11.02,0,22.05,0,33.07,0c1.64,0,1.76,0.11,1.76,1.72C51.88,18.53,51.88,22.61,51.88,26.88z
				 M63.58,34.36c-12.69,0-25.32,0-38.02,0c0.03,0.49,0.05,0.88,0.07,1.24c0.16,0.06,0.24,0.12,0.31,0.12
				c1.8,0.01,3.59,0.02,5.39,0.02c1.47,0.01,1.58,0.1,1.58,1.62c0.01,6,0,12.01,0,18.01c0,0.48,0,0.95,0,1.47
				c10.31,0,20.46,0,30.66,0C63.58,49.3,63.58,41.85,63.58,34.36z M24,35.64c0-1.27-0.04-2.49,0.01-3.7
				c0.06-1.61,0.18-3.22,0.27-4.83c1.57-0.08,3.14-0.22,4.72-0.22c6.62-0.03,13.23-0.01,19.85-0.01c0.44,0,0.88,0,1.38,0
				c0-4.28,0-8.42,0-12.59c-11.17,0-22.25,0-33.29,0c0,7.18,0,14.26,0,21.35C19.31,35.64,21.58,35.64,24,35.64z M31.31,37.3
				c-8.19,0-16.25,0-24.28,0c0,5.38,0,10.66,0,16.31c1.59-1.63,2.97-3.01,4.3-4.42c0.62-0.66,1.16-0.67,1.73,0.01
				c0.7,0.84,1.39,1.68,2.13,2.57c2.84-2.85,5.35-5.37,7.86-7.88c1.42-1.42,1.42-1.42,2.88,0.04c1.53,1.53,3.06,3.06,4.59,4.59
				c0.21,0.21,0.46,0.37,0.78,0.63C31.31,45.11,31.31,41.24,31.31,37.3z M12.26,50.37c-1.76,1.8-3.35,3.38-4.86,5.03
				c-0.29,0.32-0.3,0.9-0.47,1.46c8.27,0,16.28,0,24.42,0c0-1.7,0.01-3.32-0.01-4.95c0-0.22-0.13-0.48-0.28-0.64
				c-2.14-2.17-4.3-4.33-6.51-6.54c-0.36,0.34-0.67,0.6-0.95,0.89c-2.37,2.36-4.76,4.71-7.09,7.11c-0.8,0.83-1.38,0.82-2.1-0.02
				C13.78,51.96,13.09,51.27,12.26,50.37z M25.54,32.72c12.69,0,25.31,0,37.94,0c0-1.48,0-2.85,0-4.25c-12.69,0-25.32,0-37.94,0
				C25.54,29.95,25.54,31.32,25.54,32.72z"/>
		</g>
		<g>
			<path class="st145" d="M41.16,45.96c0-1.18-0.03-2.37,0.01-3.55c0.04-1.11,0.53-1.38,1.49-0.83c2.01,1.16,4.01,2.34,6,3.54
				c1.05,0.64,1.06,1.15,0.03,1.77c-1.99,1.2-3.98,2.38-5.99,3.54c-1.01,0.58-1.5,0.27-1.53-0.92
				C41.14,48.32,41.16,47.14,41.16,45.96z M47.17,45.94c-1.56-0.93-2.96-1.76-4.43-2.63c0,1.84,0,3.5,0,5.34
				C44.28,47.71,45.65,46.87,47.17,45.94z"/>
		</g>
		<g>
			<path class="st145" d="M38.99,21.55c-2.04,0-4.08,0.04-6.12-0.03c-0.42-0.01-0.83-0.42-1.25-0.64c0.42-0.27,0.85-0.76,1.27-0.76
				c4.12-0.06,8.24-0.06,12.35,0c0.42,0.01,0.83,0.52,1.25,0.8c-0.42,0.21-0.84,0.59-1.27,0.6C43.15,21.58,41.06,21.55,38.99,21.55z
				"/>
		</g>
		<g>
			<path class="st145" d="M23,22.17c0.64-0.78,1.08-1.57,1.74-2.06c0.86-0.63,1.59-2.66,2.58-1.65c1.06,1.09-1.03,1.77-1.65,2.67
				c-0.52,0.76-1.33,1.31-1.94,2.01c-0.65,0.74-1.19,0.68-1.8-0.02c-0.37-0.43-0.86-0.77-1.16-1.24c-0.17-0.27-0.07-0.72-0.09-1.09
				c0.4,0.03,0.86-0.07,1.17,0.11C22.22,21.1,22.46,21.53,23,22.17z"/>
		</g>
		<g>
			<path class="st145" d="M14.13,46.55c-1.86,0.01-3.39-1.5-3.36-3.32c0.02-1.8,1.61-3.35,3.4-3.32c1.77,0.02,3.26,1.51,3.29,3.29
				C17.49,45.03,15.99,46.54,14.13,46.55z M15.91,43.29c0.01-0.98-0.76-1.83-1.72-1.87c-0.97-0.05-1.81,0.74-1.85,1.72
				c-0.04,1.08,0.72,1.91,1.77,1.91C15.11,45.06,15.89,44.28,15.91,43.29z"/>
		</g>
		<g>
			<path class="st145" d="M33.2,30.48c-0.73,0.48-1.18,1.01-1.57,0.97c-0.38-0.04-0.96-0.69-0.95-1.05
				c0.01-0.35,0.65-0.93,1.04-0.96C32.1,29.42,32.52,29.97,33.2,30.48z"/>
		</g>
		<g>
			<path class="st145" d="M36.92,30.39c-0.7,0.53-1.13,1.1-1.5,1.06c-0.4-0.04-0.75-0.63-1.12-0.99c0.35-0.36,0.68-0.97,1.08-1.02
				C35.74,29.39,36.19,29.91,36.92,30.39z"/>
		</g>
		<g>
			<path class="st145" d="M27.8,28.87c0.55,0.74,1.12,1.17,1.08,1.54c-0.04,0.4-0.64,0.75-0.99,1.12c-0.34-0.33-0.93-0.64-0.97-1.01
				C26.88,30.11,27.35,29.66,27.8,28.87z"/>
		</g>
	</g>
</g>
</svg>
